<svg xmlns="http://www.w3.org/2000/svg" data-v-423bf9ae="" width="339.5335485294648" height="163" style="">
    <rect id="backgroundrect" width="100%" height="100%" x="0" y="0" fill="none"
          stroke="none"/><!----><!----><!----><!----><!---->
    <g class="currentLayer" style="">
        <title>Layer 1</title>
        <g data-v-423bf9ae="" id="73a1fad3-fd9c-4dcf-b0f6-18dbb86a40ed" fill="#744fc6" class="" fill-opacity="1">
            <path d="M18.316057097599817,162.9999973933829 L18.316057097599817,162.9999973933829 Q9.044920036990893,162.9999973933829 4.0303427589256895,158.74343761083918 L4.0303427589256895,158.74343761083918 L4.0303427589256895,158.74343761083918 Q-0.9259254810224764,154.48687782829543 -0.9259254810224764,146.2653034537932 L-0.9259254810224764,146.2653034537932 L-0.9259254810224764,142.76676116677095 L10.852500218619047,142.76676116677095 L10.852500218619047,146.0903763394421 L10.852500218619047,146.0903763394421 Q10.852500218619047,149.47230055023024 12.718389438364241,151.22157169374134 L12.718389438364241,151.22157169374134 L12.718389438364241,151.22157169374134 Q14.642587696226467,153.0291518753695 18.316057097599817,153.0291518753695 L18.316057097599817,153.0291518753695 L18.316057097599817,153.0291518753695 Q21.93121746085612,153.0291518753695 23.73879764248428,151.22157169374134 L23.73879764248428,151.22157169374134 L23.73879764248428,151.22157169374134 Q25.546377824112437,149.47230055023024 25.546377824112437,146.0903763394421 L25.546377824112437,146.0903763394421 L25.546377824112437,106.03206715303749 L37.44142159998803,106.03206715303749 L37.44142159998803,146.2653034537932 L37.44142159998803,146.2653034537932 Q37.44142159998803,154.48687782829543 32.543462398156905,158.74343761083918 L32.543462398156905,158.74343761083918 L32.543462398156905,158.74343761083918 Q27.645503196325777,162.9999973933829 18.316057097599817,162.9999973933829 L18.316057097599817,162.9999973933829 zM57.4414216741318,162.00874374539325 L42.57261695428731,106.03206715303749 L55.2256782256844,106.03206715303749 L63.33063452395257,140.4927086802065 L63.33063452395257,140.4927086802065 Q63.62217971453775,142.00874367124948 64.08865201947405,144.69095942463318 L64.08865201947405,144.69095942463318 L64.08865201947405,144.69095942463318 Q64.55512432441036,147.43148421613392 64.61343336252739,148.3061197878895 L64.61343336252739,148.3061197878895 L65.02159662934665,148.3061197878895 L65.02159662934665,148.3061197878895 Q65.13821470558072,147.43148421613392 65.54637797239998,144.69095942463318 L65.54637797239998,144.69095942463318 L65.54637797239998,144.69095942463318 Q66.01285027733628,141.95043463313243 66.36270450603851,140.4927086802065 L66.36270450603851,140.4927086802065 L74.58427888054077,106.03206715303749 L88.86999321921489,106.03206715303749 L97.0332585556001,140.4927086802065 L97.0332585556001,140.4927086802065 Q97.38311278430233,141.83381655689834 97.79127605112159,144.63265038651616 L97.79127605112159,144.63265038651616 L97.79127605112159,144.63265038651616 Q98.19943931794086,147.43148421613392 98.31605739417492,148.3061197878895 L98.31605739417492,148.3061197878895 L98.72422066099419,148.3061197878895 L98.72422066099419,148.3061197878895 Q98.84083873722827,147.48979325425097 99.24900200404753,144.80757750086724 L99.24900200404753,144.80757750086724 L99.24900200404753,144.80757750086724 Q99.65716527086678,142.18367078560058 100.06532853768604,140.4927086802065 L100.06532853768604,140.4927086802065 L108.40352098842237,106.03206715303749 L119.30731111630833,106.03206715303749 L104.43850639646384,162.00874374539325 L91.66882704883268,162.00874374539325 L82.39768998822376,126.32361241776644 L82.39768998822376,126.32361241776644 Q81.93121768328746,124.57434127425533 81.5230544164682,121.89212552087162 L81.5230544164682,121.89212552087162 L81.5230544164682,121.89212552087162 Q81.11489114964893,119.26821880560495 81.0565821115319,118.45189227196641 L81.0565821115319,118.45189227196641 L80.70672788282968,118.45189227196641 L80.70672788282968,118.45189227196641 Q80.53180076847856,119.32652784372198 80.1236375016593,122.12536167333977 L80.1236375016593,122.12536167333977 L80.1236375016593,122.12536167333977 Q79.657165196723,124.86588646484051 79.30731096802077,126.32361241776644 L79.30731096802077,126.32361241776644 L70.26941005988,162.00874374539325 L57.4414216741318,162.00874374539325 zM161.17320048434107,162.00874374539325 L161.17320048434107,116.236148823519 L143.91372520169804,116.236148823519 L143.91372520169804,106.03206715303749 L190.32771954285968,106.03206715303749 L190.32771954285968,116.236148823519 L173.00993522209964,116.236148823519 L173.00993522209964,162.00874374539325 L161.17320048434107,162.00874374539325 zM216.9749499623457,162.9999973933829 L216.9749499623457,162.9999973933829 Q205.95454175822567,162.9999973933829 200.5318012133412,157.51894781038138 L200.5318012133412,157.51894781038138 L200.5318012133412,157.51894781038138 Q195.16736970657377,152.03789822737988 195.16736970657377,140.55101771832352 L195.16736970657377,140.55101771832352 L195.16736970657377,140.55101771832352 Q195.16736970657377,129.0641372092672 200.5318012133412,123.5830876262657 L200.5318012133412,123.5830876262657 L200.5318012133412,123.5830876262657 Q205.95454175822567,118.1020380432642 216.9749499623457,118.1020380432642 L216.9749499623457,118.1020380432642 L216.9749499623457,118.1020380432642 Q227.99535816646576,118.1020380432642 233.4180987113502,123.5830876262657 L233.4180987113502,123.5830876262657 L233.4180987113502,123.5830876262657 Q238.8408392562347,129.0641372092672 238.8408392562347,140.55101771832352 L238.8408392562347,140.55101771832352 L238.8408392562347,140.55101771832352 Q238.8408392562347,152.03789822737988 233.4180987113502,157.51894781038138 L233.4180987113502,157.51894781038138 L233.4180987113502,157.51894781038138 Q227.99535816646576,162.9999973933829 216.9749499623457,162.9999973933829 L216.9749499623457,162.9999973933829 zM216.9749499623457,153.84547840900802 L216.9749499623457,153.84547840900802 Q222.39769050723018,153.84547840900802 224.84667010814576,150.69679035068802 L224.84667010814576,150.69679035068802 L224.84667010814576,150.69679035068802 Q227.29564970906134,147.54810229236801 227.29564970906134,141.19241713761096 L227.29564970906134,141.19241713761096 L227.29564970906134,139.90961829903614 L227.29564970906134,139.90961829903614 Q227.29564970906134,133.55393314427909 224.84667010814576,130.40524508595905 L224.84667010814576,130.40524508595905 L224.84667010814576,130.40524508595905 Q222.39769050723018,127.25655702763905 216.9749499623457,127.25655702763905 L216.9749499623457,127.25655702763905 L216.9749499623457,127.25655702763905 Q211.49390037934424,127.25655702763905 209.04492077842866,130.40524508595905 L209.04492077842866,130.40524508595905 L209.04492077842866,130.40524508595905 Q206.65425021563016,133.55393314427909 206.65425021563016,139.90961829903614 L206.65425021563016,139.90961829903614 L206.65425021563016,141.19241713761096 L206.65425021563016,141.19241713761096 Q206.65425021563016,147.54810229236801 209.04492077842866,150.69679035068802 L209.04492077842866,150.69679035068802 L209.04492077842866,150.69679035068802 Q211.49390037934424,153.84547840900802 216.9749499623457,153.84547840900802 L216.9749499623457,153.84547840900802 zM262.1061454649326,162.9999973933829 L262.1061454649326,162.9999973933829 Q253.94288012854736,162.9999973933829 249.45308419353546,157.40232973414732 L249.45308419353546,157.40232973414732 L249.45308419353546,157.40232973414732 Q244.96328825852362,151.80466207491173 244.96328825852362,140.4927086802065 L244.96328825852362,140.4927086802065 L244.96328825852362,140.4927086802065 Q244.96328825852362,129.35568239985238 249.51139323165248,123.75801474061682 L249.51139323165248,123.75801474061682 L249.51139323165248,123.75801474061682 Q254.0011891666644,118.1020380432642 261.5230550837622,118.1020380432642 L261.5230550837622,118.1020380432642 L261.5230550837622,118.1020380432642 Q265.83792390442295,118.1020380432642 269.16153907709406,119.6763820724242 L269.16153907709406,119.6763820724242 L269.16153907709406,119.6763820724242 Q272.4851542497652,121.19241706346718 274.3510434695104,124.049559931202 L274.3510434695104,124.049559931202 L274.8175157744467,124.049559931202 L274.8175157744467,102.99999717095154 L286.01285109291786,102.99999717095154 L286.01285109291786,162.00874374539325 L276.4501688417237,162.00874374539325 L275.75046038431924,156.41107608615766 L275.1673700031489,156.41107608615766 L275.1673700031489,156.41107608615766 Q273.1265536690526,159.67638222071176 269.68632042014735,161.3090352879888 L269.68632042014735,161.3090352879888 L269.68632042014735,161.3090352879888 Q266.2460871712422,162.9999973933829 262.1061454649326,162.9999973933829 L262.1061454649326,162.9999973933829 zM265.6629967900718,153.26238802783766 L265.6629967900718,153.26238802783766 Q274.8175157744467,153.26238802783766 274.8175157744467,141.30903521384502 L274.8175157744467,141.30903521384502 L274.8175157744467,139.96792733715316 L274.8175157744467,139.96792733715316 Q274.8175157744467,127.83964740880941 265.6629967900718,127.83964740880941 L265.6629967900718,127.83964740880941 L265.6629967900718,127.83964740880941 Q260.70672855012367,127.83964740880941 258.60760317791033,130.8134083527783 L258.60760317791033,130.8134083527783 L258.60760317791033,130.8134083527783 Q256.45016876757995,133.7871692967472 256.45016876757995,139.79300022280205 L256.45016876757995,139.79300022280205 L256.45016876757995,141.30903521384502 L256.45016876757995,141.30903521384502 Q256.45016876757995,147.31486613989986 258.60760317791033,150.28862708386876 L258.60760317791033,150.28862708386876 L258.60760317791033,150.28862708386876 Q260.70672855012367,153.26238802783766 265.6629967900718,153.26238802783766 L265.6629967900718,153.26238802783766 zM316.68340514247944,162.9999973933829 L316.68340514247944,162.9999973933829 Q305.66299693835936,162.9999973933829 300.29856543159195,157.51894781038138 L300.29856543159195,157.51894781038138 L300.29856543159195,157.51894781038138 Q294.93413392482455,152.03789822737988 294.93413392482455,140.55101771832352 L294.93413392482455,140.55101771832352 L294.93413392482455,140.55101771832352 Q294.93413392482455,129.0641372092672 300.29856543159195,123.5830876262657 L300.29856543159195,123.5830876262657 L300.29856543159195,123.5830876262657 Q305.66299693835936,118.1020380432642 316.68340514247944,118.1020380432642 L316.68340514247944,118.1020380432642 L316.68340514247944,118.1020380432642 Q327.7038133465995,118.1020380432642 333.18486292960097,123.5830876262657 L333.18486292960097,123.5830876262657 L333.18486292960097,123.5830876262657 Q338.6076034744854,129.0641372092672 338.6076034744854,140.55101771832352 L338.6076034744854,140.55101771832352 L338.6076034744854,140.55101771832352 Q338.6076034744854,152.03789822737988 333.18486292960097,157.51894781038138 L333.18486292960097,157.51894781038138 L333.18486292960097,157.51894781038138 Q327.7038133465995,162.9999973933829 316.68340514247944,162.9999973933829 L316.68340514247944,162.9999973933829 zM316.68340514247944,153.84547840900802 L316.68340514247944,153.84547840900802 Q322.1644547254809,153.84547840900802 324.6134343263965,150.69679035068802 L324.6134343263965,150.69679035068802 L324.6134343263965,150.69679035068802 Q327.06241392731204,147.54810229236801 327.06241392731204,141.19241713761096 L327.06241392731204,141.19241713761096 L327.06241392731204,139.90961829903614 L327.06241392731204,139.90961829903614 Q327.06241392731204,133.55393314427909 324.6134343263965,130.40524508595905 L324.6134343263965,130.40524508595905 L324.6134343263965,130.40524508595905 Q322.1644547254809,127.25655702763905 316.68340514247944,127.25655702763905 L316.68340514247944,127.25655702763905 L316.68340514247944,127.25655702763905 Q311.26066459759494,127.25655702763905 308.8116849966794,130.40524508595905 L308.8116849966794,130.40524508595905 L308.8116849966794,130.40524508595905 Q306.4210144338809,133.55393314427909 306.4210144338809,139.90961829903614 L306.4210144338809,139.90961829903614 L306.4210144338809,141.19241713761096 L306.4210144338809,141.19241713761096 Q306.4210144338809,147.54810229236801 308.8116849966794,150.69679035068802 L308.8116849966794,150.69679035068802 L308.8116849966794,150.69679035068802 Q311.26066459759494,153.84547840900802 316.68340514247944,153.84547840900802 L316.68340514247944,153.84547840900802 z"
                  stroke-width="0" id="svg_1" fill="#744fc6" fill-opacity="1"/>
        </g>
        <g data-v-423bf9ae="" id="43e37548-8bdc-444e-a88b-1582460e0998" stroke="none" fill="#744fc6" class=""
           fill-opacity="1" opacity="1">
            <path d="M173.78128738939068,69.72665852456429 l12.295049341286964,21.2453422007869 L216.9846414800113,37.55471256187867 h-26.89280032491433 V20.765053122863563 L155.6291711919037,0.971999994293947 L121.16350681825222,20.765053122863563 v39.592095078055586 l34.46566437365148,19.796047539027793 l18.15211619748699,-10.426537215382663 zm32.81873862165249,-26.183125046325674 l-20.52668369082371,35.47178628759995 l-20.52668369082371,-35.47178628759995 h41.05336738164742 z"
                  stroke-width="0" id="svg_2" fill="#744fc6" fill-opacity="1" opacity="1"/>
        </g>
    </g>
</svg>